<svg xmlns="http://www.w3.org/2000/svg" viewBox="0 0 512 512" width="512" height="512">
  <defs>
    <clipPath id="rounded">
      <rect x="0" y="0" width="512" height="512" rx="96" ry="96"/>
    </clipPath>
  </defs>

  <rect x="0" y="0" width="512" height="512" rx="96" ry="96" fill="#0f0f1a"/>

  <g clip-path="url(#rounded)">
    <!-- Ticket-stub S: upper arc -->
    <path d="
      M 160 120
      C 160 80, 195 75, 240 75
      L 360 75
      C 370 75, 372 80, 372 90
      L 372 130
      L 340 130
      L 340 105
      L 240 105
      C 220 105, 195 112, 192 155
      L 192 220
      C 192 230, 195 235, 205 235
      L 372 235
      L 372 265
      L 190 265
      C 158 265, 160 248, 160 220
      Z
    " fill="white"/>

    <!-- Upper perforations -->
    <rect x="357" y="125" width="10" height="12" rx="2" fill="#0f0f1a"/>
    <rect x="357" y="148" width="10" height="12" rx="2" fill="#0f0f1a"/>

    <!-- Ticket-stub S: lower arc -->
    <path d="
      M 352 292
      C 352 252, 317 247, 272 247
      L 152 247
      C 142 247, 140 252, 140 262
      L 140 302
      L 172 302
      L 172 277
      L 272 277
      C 292 277, 317 284, 320 327
      L 320 392
      C 320 402, 317 407, 307 407
      L 140 407
      L 140 437
      L 322 437
      C 354 437, 352 420, 352 392
      Z
    " fill="white"/>

    <!-- Lower perforations -->
    <rect x="145" y="297" width="10" height="12" rx="2" fill="#0f0f1a"/>
    <rect x="145" y="320" width="10" height="12" rx="2" fill="#0f0f1a"/>

    <!-- Large play triangle — fills the S gap -->
    <path d="
      M 210 195
      L 210 320
      L 330 257
      Z
    " fill="#0d9488" stroke="#0d9488" stroke-width="10" stroke-linejoin="round"/>
  </g>
</svg>
